solid 
  facet normal 0.000000E+00 0.000000E+00 1.000000E+00
    outer loop
      vertex 1.005660E-03 -2.049453E-01 -4.125292E-02
      vertex 1.285079E-02 -2.049453E-01 -4.125292E-02
      vertex 1.285079E-02 2.074658E-01 -4.125292E-02
    endloop
  endfacet
  facet normal 0.000000E+00 0.000000E+00 1.000000E+00
    outer loop
      vertex 1.285079E-02 2.074658E-01 -4.125292E-02
      vertex 1.005660E-03 2.074658E-01 -4.125292E-02
      vertex 1.005660E-03 -2.049453E-01 -4.125292E-02
    endloop
  endfacet
  facet normal -1.000000E+00 -0.000000E+00 -0.000000E+00
    outer loop
      vertex 7.683875E-02 -2.049453E-01 1.775154E-01
      vertex 7.683875E-02 -2.049453E-01 2.361820E-01
      vertex 7.683875E-02 2.074658E-01 2.361820E-01
    endloop
  endfacet
  facet normal -1.000000E+00 0.000000E+00 0.000000E+00
    outer loop
      vertex 7.683875E-02 2.074658E-01 2.361820E-01
      vertex 7.683875E-02 2.074658E-01 1.775154E-01
      vertex 7.683875E-02 -2.049453E-01 1.775154E-01
    endloop
  endfacet
  facet normal 3.578971E-01 0.000000E+00 -9.337610E-01
    outer loop
      vertex -1.285079E-02 -2.049453E-01 3.962836E-01
      vertex -3.439371E-02 -2.049455E-01 3.880265E-01
      vertex -3.439371E-02 2.074657E-01 3.880265E-01
    endloop
  endfacet
  facet normal 3.578971E-01 0.000000E+00 -9.337610E-01
    outer loop
      vertex -3.439371E-02 2.074657E-01 3.880265E-01
      vertex -1.285079E-02 2.074658E-01 3.962836E-01
      vertex -1.285079E-02 -2.049453E-01 3.962836E-01
    endloop
  endfacet
  facet normal 0.000000E+00 0.000000E+00 9.999999E-01
    outer loop
      vertex -1.778199E-03 -2.049453E-01 1.775154E-01
      vertex 1.778199E-03 -2.049453E-01 1.775154E-01
      vertex 1.778199E-03 2.074658E-01 1.775154E-01
    endloop
  endfacet
  facet normal 0.000000E+00 0.000000E+00 9.999999E-01
    outer loop
      vertex 1.778199E-03 2.074658E-01 1.775154E-01
      vertex -1.778199E-03 2.074658E-01 1.775154E-01
      vertex -1.778199E-03 -2.049453E-01 1.775154E-01
    endloop
  endfacet
  facet normal -8.568936E-01 -0.000000E+00 -5.154933E-01
    outer loop
      vertex -1.285079E-02 -2.049453E-01 -4.125292E-02
      vertex -2.386444E-02 -2.049455E-01 -2.294516E-02
      vertex -2.386444E-02 2.074657E-01 -2.294516E-02
    endloop
  endfacet
  facet normal -8.568936E-01 0.000000E+00 -5.154933E-01
    outer loop
      vertex -2.386444E-02 2.074657E-01 -2.294516E-02
      vertex -1.285079E-02 2.074658E-01 -4.125292E-02
      vertex -1.285079E-02 -2.049453E-01 -4.125292E-02
    endloop
  endfacet
  facet normal 0.000000E+00 0.000000E+00 -1.000000E+00
    outer loop
      vertex -1.005660E-03 -2.049453E-01 3.962836E-01
      vertex -1.285079E-02 -2.049453E-01 3.962836E-01
      vertex -1.285079E-02 2.074658E-01 3.962836E-01
    endloop
  endfacet
  facet normal 0.000000E+00 0.000000E+00 -1.000000E+00
    outer loop
      vertex -1.285079E-02 2.074658E-01 3.962836E-01
      vertex -1.005660E-03 2.074658E-01 3.962836E-01
      vertex -1.005660E-03 -2.049453E-01 3.962836E-01
    endloop
  endfacet
  facet normal 9.867159E-01 0.000000E+00 -1.624560E-01
    outer loop
      vertex 7.683875E-02 -2.049453E-01 1.188487E-01
      vertex 5.717849E-02 -2.049453E-01 -5.627213E-04
      vertex 5.717849E-02 2.074658E-01 -5.627213E-04
    endloop
  endfacet
  facet normal 9.867159E-01 0.000000E+00 -1.624560E-01
    outer loop
      vertex 5.717849E-02 2.074658E-01 -5.627213E-04
      vertex 7.683875E-02 2.074658E-01 1.188487E-01
      vertex 7.683875E-02 -2.049453E-01 1.188487E-01
    endloop
  endfacet
  facet normal 0.000000E+00 0.000000E+00 -1.000000E+00
    outer loop
      vertex -1.005660E-03 -2.049453E-01 -4.125292E-02
      vertex -1.285079E-02 -2.049453E-01 -4.125292E-02
      vertex -1.285079E-02 2.074658E-01 -4.125292E-02
    endloop
  endfacet
  facet normal 0.000000E+00 0.000000E+00 -1.000000E+00
    outer loop
      vertex -1.285079E-02 2.074658E-01 -4.125292E-02
      vertex -1.005660E-03 2.074658E-01 -4.125292E-02
      vertex -1.005660E-03 -2.049453E-01 -4.125292E-02
    endloop
  endfacet
  facet normal 0.000000E+00 0.000000E+00 1.000000E+00
    outer loop
      vertex -1.005660E-03 -2.049453E-01 3.962836E-01
      vertex 1.005660E-03 -2.049453E-01 3.962836E-01
      vertex 1.005660E-03 2.074658E-01 3.962836E-01
    endloop
  endfacet
  facet normal 0.000000E+00 0.000000E+00 1.000000E+00
    outer loop
      vertex 1.005660E-03 2.074658E-01 3.962836E-01
      vertex -1.005660E-03 2.074658E-01 3.962836E-01
      vertex -1.005660E-03 -2.049453E-01 3.962836E-01
    endloop
  endfacet
  facet normal 0.000000E+00 0.000000E+00 1.000000E+00
    outer loop
      vertex -1.005660E-03 -2.049453E-01 -4.125292E-02
      vertex 1.005660E-03 -2.049453E-01 -4.125292E-02
      vertex 1.005660E-03 2.074658E-01 -4.125292E-02
    endloop
  endfacet
  facet normal 0.000000E+00 0.000000E+00 1.000000E+00
    outer loop
      vertex 1.005660E-03 2.074658E-01 -4.125292E-02
      vertex -1.005660E-03 2.074658E-01 -4.125292E-02
      vertex -1.005660E-03 -2.049453E-01 -4.125292E-02
    endloop
  endfacet
  facet normal 3.721851E-01 0.000000E+00 9.281585E-01
    outer loop
      vertex 1.285079E-02 -2.049453E-01 3.962836E-01
      vertex 3.582952E-02 -2.049455E-01 3.870693E-01
      vertex 3.582952E-02 2.074657E-01 3.870693E-01
    endloop
  endfacet
  facet normal 3.721851E-01 -0.000000E+00 9.281585E-01
    outer loop
      vertex 3.582952E-02 2.074657E-01 3.870693E-01
      vertex 1.285079E-02 2.074658E-01 3.962836E-01
      vertex 1.285079E-02 -2.049453E-01 3.962836E-01
    endloop
  endfacet
  facet normal 9.867159E-01 0.000000E+00 1.624560E-01
    outer loop
      vertex -7.683875E-02 -2.049453E-01 1.188487E-01
      vertex -5.717849E-02 -2.049453E-01 -5.627213E-04
      vertex -5.717849E-02 2.074658E-01 -5.627213E-04
    endloop
  endfacet
  facet normal 9.867159E-01 -0.000000E+00 1.624560E-01
    outer loop
      vertex -5.717849E-02 2.074658E-01 -5.627213E-04
      vertex -7.683875E-02 2.074658E-01 1.188487E-01
      vertex -7.683875E-02 -2.049453E-01 1.188487E-01
    endloop
  endfacet
  facet normal 0.000000E+00 0.000000E+00 1.000000E+00
    outer loop
      vertex 1.005660E-03 -2.049453E-01 3.962836E-01
      vertex 1.285079E-02 -2.049453E-01 3.962836E-01
      vertex 1.285079E-02 2.074658E-01 3.962836E-01
    endloop
  endfacet
  facet normal 0.000000E+00 0.000000E+00 1.000000E+00
    outer loop
      vertex 1.285079E-02 2.074658E-01 3.962836E-01
      vertex 1.005660E-03 2.074658E-01 3.962836E-01
      vertex 1.005660E-03 -2.049453E-01 3.962836E-01
    endloop
  endfacet
  facet normal -5.576821E-01 0.000000E+00 8.300546E-01
    outer loop
      vertex 2.386444E-02 -2.049455E-01 -2.294516E-02
      vertex 5.717849E-02 -2.049453E-01 -5.627213E-04
      vertex 5.717849E-02 2.074658E-01 -5.627213E-04
    endloop
  endfacet
  facet normal -5.576821E-01 0.000000E+00 8.300546E-01
    outer loop
      vertex 5.717849E-02 2.074658E-01 -5.627213E-04
      vertex 2.386444E-02 2.074657E-01 -2.294516E-02
      vertex 2.386444E-02 -2.049455E-01 -2.294516E-02
    endloop
  endfacet
  facet normal 1.000000E+00 0.000000E+00 1.269985E-07
    outer loop
      vertex 7.683875E-02 -2.049453E-01 1.775154E-01
      vertex 7.683875E-02 -2.049453E-01 1.188487E-01
      vertex 7.683875E-02 2.074658E-01 1.188487E-01
    endloop
  endfacet
  facet normal 1.000000E+00 -0.000000E+00 1.269985E-07
    outer loop
      vertex 7.683875E-02 2.074658E-01 1.188487E-01
      vertex 7.683875E-02 2.074658E-01 1.775154E-01
      vertex 7.683875E-02 -2.049453E-01 1.775154E-01
    endloop
  endfacet
  facet normal -9.867158E-01 -0.000000E+00 -1.624560E-01
    outer loop
      vertex 7.683875E-02 -2.049453E-01 2.361820E-01
      vertex 5.717849E-02 -2.049453E-01 3.555934E-01
      vertex 5.717849E-02 2.074658E-01 3.555934E-01
    endloop
  endfacet
  facet normal -9.867158E-01 0.000000E+00 -1.624560E-01
    outer loop
      vertex 5.717849E-02 2.074658E-01 3.555934E-01
      vertex 7.683875E-02 2.074658E-01 2.361820E-01
      vertex 7.683875E-02 -2.049453E-01 2.361820E-01
    endloop
  endfacet
  facet normal 8.182638E-01 0.000000E+00 -5.748430E-01
    outer loop
      vertex -3.439371E-02 -2.049455E-01 3.880265E-01
      vertex -5.717849E-02 -2.049453E-01 3.555934E-01
      vertex -5.717849E-02 2.074658E-01 3.555934E-01
    endloop
  endfacet
  facet normal 8.182638E-01 0.000000E+00 -5.748430E-01
    outer loop
      vertex -5.717849E-02 2.074658E-01 3.555934E-01
      vertex -3.439371E-02 2.074657E-01 3.880265E-01
      vertex -3.439371E-02 -2.049455E-01 3.880265E-01
    endloop
  endfacet
  facet normal 0.000000E+00 0.000000E+00 1.000000E+00
    outer loop
      vertex 1.778199E-03 -2.049453E-01 1.775154E-01
      vertex 7.683875E-02 -2.049453E-01 1.775154E-01
      vertex 7.683875E-02 2.074658E-01 1.775154E-01
    endloop
  endfacet
  facet normal 0.000000E+00 0.000000E+00 1.000000E+00
    outer loop
      vertex 7.683875E-02 2.074658E-01 1.775154E-01
      vertex 1.778199E-03 2.074658E-01 1.775154E-01
      vertex 1.778199E-03 -2.049453E-01 1.775154E-01
    endloop
  endfacet
  facet normal -5.576821E-01 -0.000000E+00 -8.300546E-01
    outer loop
      vertex -2.386444E-02 -2.049455E-01 -2.294516E-02
      vertex -5.717849E-02 -2.049453E-01 -5.627213E-04
      vertex -5.717849E-02 2.074658E-01 -5.627213E-04
    endloop
  endfacet
  facet normal -5.576821E-01 0.000000E+00 -8.300546E-01
    outer loop
      vertex -5.717849E-02 2.074658E-01 -5.627213E-04
      vertex -2.386444E-02 2.074657E-01 -2.294516E-02
      vertex -2.386444E-02 -2.049455E-01 -2.294516E-02
    endloop
  endfacet
  facet normal -1.000000E+00 -0.000000E+00 -0.000000E+00
    outer loop
      vertex -7.683875E-02 -2.049453E-01 1.775154E-01
      vertex -7.683875E-02 -2.049453E-01 2.361820E-01
      vertex -7.683875E-02 2.074658E-01 2.361820E-01
    endloop
  endfacet
  facet normal -1.000000E+00 0.000000E+00 0.000000E+00
    outer loop
      vertex -7.683875E-02 2.074658E-01 2.361820E-01
      vertex -7.683875E-02 2.074658E-01 1.775154E-01
      vertex -7.683875E-02 -2.049453E-01 1.775154E-01
    endloop
  endfacet
  facet normal 1.000000E+00 0.000000E+00 -1.269985E-07
    outer loop
      vertex -7.683875E-02 -2.049453E-01 1.775154E-01
      vertex -7.683875E-02 -2.049453E-01 1.188487E-01
      vertex -7.683875E-02 2.074658E-01 1.188487E-01
    endloop
  endfacet
  facet normal 1.000000E+00 0.000000E+00 -1.269985E-07
    outer loop
      vertex -7.683875E-02 2.074658E-01 1.188487E-01
      vertex -7.683875E-02 2.074658E-01 1.775154E-01
      vertex -7.683875E-02 -2.049453E-01 1.775154E-01
    endloop
  endfacet
  facet normal -9.867158E-01 0.000000E+00 1.624560E-01
    outer loop
      vertex -7.683875E-02 -2.049453E-01 2.361820E-01
      vertex -5.717849E-02 -2.049453E-01 3.555934E-01
      vertex -5.717849E-02 2.074658E-01 3.555934E-01
    endloop
  endfacet
  facet normal -9.867158E-01 0.000000E+00 1.624560E-01
    outer loop
      vertex -5.717849E-02 2.074658E-01 3.555934E-01
      vertex -7.683875E-02 2.074658E-01 2.361820E-01
      vertex -7.683875E-02 -2.049453E-01 2.361820E-01
    endloop
  endfacet
  facet normal 0.000000E+00 0.000000E+00 -1.000000E+00
    outer loop
      vertex -1.778199E-03 -2.049453E-01 1.775154E-01
      vertex -7.683875E-02 -2.049453E-01 1.775154E-01
      vertex -7.683875E-02 2.074658E-01 1.775154E-01
    endloop
  endfacet
  facet normal 0.000000E+00 0.000000E+00 -1.000000E+00
    outer loop
      vertex -7.683875E-02 2.074658E-01 1.775154E-01
      vertex -1.778199E-03 2.074658E-01 1.775154E-01
      vertex -1.778199E-03 -2.049453E-01 1.775154E-01
    endloop
  endfacet
  facet normal 8.275940E-01 0.000000E+00 5.613271E-01
    outer loop
      vertex 3.582952E-02 -2.049455E-01 3.870693E-01
      vertex 5.717849E-02 -2.049453E-01 3.555934E-01
      vertex 5.717849E-02 2.074658E-01 3.555934E-01
    endloop
  endfacet
  facet normal 8.275940E-01 -0.000000E+00 5.613271E-01
    outer loop
      vertex 5.717849E-02 2.074658E-01 3.555934E-01
      vertex 3.582952E-02 2.074657E-01 3.870693E-01
      vertex 3.582952E-02 -2.049455E-01 3.870693E-01
    endloop
  endfacet
  facet normal -8.568936E-01 0.000000E+00 5.154933E-01
    outer loop
      vertex 1.285079E-02 -2.049453E-01 -4.125292E-02
      vertex 2.386444E-02 -2.049455E-01 -2.294516E-02
      vertex 2.386444E-02 2.074657E-01 -2.294516E-02
    endloop
  endfacet
  facet normal -8.568936E-01 0.000000E+00 5.154933E-01
    outer loop
      vertex 2.386444E-02 2.074657E-01 -2.294516E-02
      vertex 1.285079E-02 2.074658E-01 -4.125292E-02
      vertex 1.285079E-02 -2.049453E-01 -4.125292E-02
    endloop
  endfacet
  facet normal 4.526334E-06 -1.000000E+00 -7.452297E-07
    outer loop
      vertex 5.717849E-02 -2.049453E-01 -5.627213E-04
      vertex 7.683875E-02 -2.049453E-01 1.188487E-01
      vertex 2.386444E-02 -2.049455E-01 -2.294516E-02
    endloop
  endfacet
  facet normal 8.944272E-01 4.472136E-01 0.000000E+00
    outer loop
      vertex 7.683875E-02 -2.049453E-01 1.188487E-01
      vertex 7.683875E-02 -2.049453E-01 1.775154E-01
      vertex 7.683875E-02 -2.049453E-01 2.361820E-01
    endloop
  endfacet
  facet normal 8.295488E-06 -9.999999E-01 1.365795E-06
    outer loop
      vertex 7.683875E-02 -2.049453E-01 2.361820E-01
      vertex 5.717849E-02 -2.049453E-01 3.555934E-01
      vertex 3.582952E-02 -2.049455E-01 3.870693E-01
    endloop
  endfacet
  facet normal 0.000000E+00 -9.999999E-01 1.455458E-05
    outer loop
      vertex 3.582952E-02 -2.049455E-01 3.870693E-01
      vertex 1.285079E-02 -2.049453E-01 3.962836E-01
      vertex 1.005660E-03 -2.049453E-01 3.962836E-01
    endloop
  endfacet
  facet normal 0.000000E+00 0.000000E+00 0.000000E+00
    outer loop
      vertex 1.005660E-03 -2.049453E-01 3.962836E-01
      vertex -1.005660E-03 -2.049453E-01 3.962836E-01
      vertex -1.285079E-02 -2.049453E-01 3.962836E-01
    endloop
  endfacet
  facet normal 1.068806E-05 -1.000000E+00 -1.164351E-05
    outer loop
      vertex -1.285079E-02 -2.049453E-01 3.962836E-01
      vertex -3.439371E-02 -2.049455E-01 3.880265E-01
      vertex -5.717849E-02 -2.049453E-01 3.555934E-01
    endloop
  endfacet
  facet normal 0.000000E+00 -1.000000E+00 0.000000E+00
    outer loop
      vertex -5.717849E-02 -2.049453E-01 3.555934E-01
      vertex -7.683875E-02 -2.049453E-01 2.361820E-01
      vertex -7.683875E-02 -2.049453E-01 1.775154E-01
    endloop
  endfacet
  facet normal 1.542711E-06 -1.000000E+00 2.539968E-07
    outer loop
      vertex -7.683875E-02 -2.049453E-01 1.775154E-01
      vertex -7.683875E-02 -2.049453E-01 1.188487E-01
      vertex -5.717849E-02 -2.049453E-01 -5.627213E-04
    endloop
  endfacet
  facet normal -0.000000E+00 -1.000000E+00 -7.325333E-06
    outer loop
      vertex -2.386444E-02 -2.049455E-01 -2.294516E-02
      vertex -1.285079E-02 -2.049453E-01 -4.125292E-02
      vertex -1.005660E-03 -2.049453E-01 -4.125292E-02
    endloop
  endfacet
  facet normal 0.000000E+00 0.000000E+00 0.000000E+00
    outer loop
      vertex -1.005660E-03 -2.049453E-01 -4.125292E-02
      vertex 1.005660E-03 -2.049453E-01 -4.125292E-02
      vertex 1.285079E-02 -2.049453E-01 -4.125292E-02
    endloop
  endfacet
  facet normal -3.627969E-05 -9.999999E-01 1.449994E-05
    outer loop
      vertex 7.683875E-02 -2.049453E-01 1.188487E-01
      vertex 1.285079E-02 -2.049453E-01 -4.125292E-02
      vertex 2.386444E-02 -2.049455E-01 -2.294516E-02
    endloop
  endfacet
  facet normal 3.737523E-06 -1.000000E+00 1.269987E-07
    outer loop
      vertex 7.683875E-02 -2.049453E-01 1.188487E-01
      vertex 7.683875E-02 -2.049453E-01 2.361820E-01
      vertex 3.582952E-02 -2.049455E-01 3.870693E-01
    endloop
  endfacet
  facet normal 0.000000E+00 -1.000000E+00 1.455458E-05
    outer loop
      vertex 3.582952E-02 -2.049455E-01 3.870693E-01
      vertex 1.005660E-03 -2.049453E-01 3.962836E-01
      vertex -1.285079E-02 -2.049453E-01 3.962836E-01
    endloop
  endfacet
  facet normal 0.000000E+00 -9.999999E-01 0.000000E+00
    outer loop
      vertex -1.285079E-02 -2.049453E-01 3.962836E-01
      vertex -5.717849E-02 -2.049453E-01 3.555934E-01
      vertex -7.683875E-02 -2.049453E-01 1.775154E-01
    endloop
  endfacet
  facet normal -4.287444E-06 -1.000000E+00 -3.896667E-07
    outer loop
      vertex -7.683875E-02 -2.049453E-01 1.775154E-01
      vertex -5.717849E-02 -2.049453E-01 -5.627213E-04
      vertex -2.386444E-02 -2.049455E-01 -2.294516E-02
    endloop
  endfacet
  facet normal -0.000000E+00 -1.000000E+00 -7.325334E-06
    outer loop
      vertex -2.386444E-02 -2.049455E-01 -2.294516E-02
      vertex -1.005660E-03 -2.049453E-01 -4.125292E-02
      vertex 1.285079E-02 -2.049453E-01 -4.125292E-02
    endloop
  endfacet
  facet normal 8.043309E-07 -1.000000E+00 -3.214678E-07
    outer loop
      vertex 7.683875E-02 -2.049453E-01 1.188487E-01
      vertex 3.582952E-02 -2.049455E-01 3.870693E-01
      vertex 1.285079E-02 -2.049453E-01 -4.125292E-02
    endloop
  endfacet
  facet normal -2.610401E-06 -1.000000E+00 7.635213E-07
    outer loop
      vertex 3.582952E-02 -2.049455E-01 3.870693E-01
      vertex -1.285079E-02 -2.049453E-01 3.962836E-01
      vertex -7.683875E-02 -2.049453E-01 1.775154E-01
    endloop
  endfacet
  facet normal 4.634021E-06 -1.000000E+00 1.967947E-06
    outer loop
      vertex -7.683875E-02 -2.049453E-01 1.775154E-01
      vertex -2.386444E-02 -2.049455E-01 -2.294516E-02
      vertex 1.285079E-02 -2.049453E-01 -4.125292E-02
    endloop
  endfacet
  facet normal -7.472247E-07 -1.000000E+00 -2.382296E-07
    outer loop
      vertex 3.582952E-02 -2.049455E-01 3.870693E-01
      vertex -7.683875E-02 -2.049453E-01 1.775154E-01
      vertex 1.285079E-02 -2.049453E-01 -4.125292E-02
    endloop
  endfacet
  facet normal -4.526334E-06 1.000000E+00 7.452297E-07
    outer loop
      vertex 5.717849E-02 2.074658E-01 -5.627213E-04
      vertex 2.386444E-02 2.074657E-01 -2.294516E-02
      vertex 7.683875E-02 2.074658E-01 1.188487E-01
    endloop
  endfacet
  facet normal -0.000000E+00 1.000000E+00 7.325333E-06
    outer loop
      vertex 2.386444E-02 2.074657E-01 -2.294516E-02
      vertex 1.285079E-02 2.074658E-01 -4.125292E-02
      vertex 1.005660E-03 2.074658E-01 -4.125292E-02
    endloop
  endfacet
  facet normal 0.000000E+00 0.000000E+00 0.000000E+00
    outer loop
      vertex 1.005660E-03 2.074658E-01 -4.125292E-02
      vertex -1.005660E-03 2.074658E-01 -4.125292E-02
      vertex -1.285079E-02 2.074658E-01 -4.125292E-02
    endloop
  endfacet
  facet normal 4.526334E-06 1.000000E+00 7.452298E-07
    outer loop
      vertex -2.386444E-02 2.074657E-01 -2.294516E-02
      vertex -5.717849E-02 2.074658E-01 -5.627213E-04
      vertex -7.683875E-02 2.074658E-01 1.188487E-01
    endloop
  endfacet
  facet normal 8.944272E-01 -4.472136E-01 0.000000E+00
    outer loop
      vertex -7.683875E-02 2.074658E-01 1.188487E-01
      vertex -7.683875E-02 2.074658E-01 1.775154E-01
      vertex -7.683875E-02 2.074658E-01 2.361820E-01
    endloop
  endfacet
  facet normal 7.687667E-06 1.000000E+00 -1.265722E-06
    outer loop
      vertex -7.683875E-02 2.074658E-01 2.361820E-01
      vertex -5.717849E-02 2.074658E-01 3.555934E-01
      vertex -3.439371E-02 2.074657E-01 3.880265E-01
    endloop
  endfacet
  facet normal 0.000000E+00 9.999999E-01 -1.624185E-05
    outer loop
      vertex -3.439371E-02 2.074657E-01 3.880265E-01
      vertex -1.285079E-02 2.074658E-01 3.962836E-01
      vertex -1.005660E-03 2.074658E-01 3.962836E-01
    endloop
  endfacet
  facet normal 0.000000E+00 0.000000E+00 0.000000E+00
    outer loop
      vertex -1.005660E-03 2.074658E-01 3.962836E-01
      vertex 1.005660E-03 2.074658E-01 3.962836E-01
      vertex 1.285079E-02 2.074658E-01 3.962836E-01
    endloop
  endfacet
  facet normal 1.036345E-05 1.000000E+00 1.128989E-05
    outer loop
      vertex 1.285079E-02 2.074658E-01 3.962836E-01
      vertex 3.582952E-02 2.074657E-01 3.870693E-01
      vertex 5.717849E-02 2.074658E-01 3.555934E-01
    endloop
  endfacet
  facet normal 0.000000E+00 1.000000E+00 -0.000000E+00
    outer loop
      vertex 5.717849E-02 2.074658E-01 3.555934E-01
      vertex 7.683875E-02 2.074658E-01 2.361820E-01
      vertex 7.683875E-02 2.074658E-01 1.775154E-01
    endloop
  endfacet
  facet normal -1.851750E-06 1.000000E+00 -2.539972E-07
    outer loop
      vertex 2.386444E-02 2.074657E-01 -2.294516E-02
      vertex 7.683875E-02 2.074658E-01 1.775154E-01
      vertex 7.683875E-02 2.074658E-01 1.188487E-01
    endloop
  endfacet
  facet normal -0.000000E+00 1.000000E+00 7.325334E-06
    outer loop
      vertex 2.386444E-02 2.074657E-01 -2.294516E-02
      vertex 1.005660E-03 2.074658E-01 -4.125292E-02
      vertex -1.285079E-02 2.074658E-01 -4.125292E-02
    endloop
  endfacet
  facet normal -3.627968E-05 1.000000E+00 -1.449994E-05
    outer loop
      vertex -1.285079E-02 2.074658E-01 -4.125292E-02
      vertex -2.386444E-02 2.074657E-01 -2.294516E-02
      vertex -7.683875E-02 2.074658E-01 1.188487E-01
    endloop
  endfacet
  facet normal 3.613956E-06 1.000000E+00 -1.269987E-07
    outer loop
      vertex -7.683875E-02 2.074658E-01 1.188487E-01
      vertex -7.683875E-02 2.074658E-01 2.361820E-01
      vertex -3.439371E-02 2.074657E-01 3.880265E-01
    endloop
  endfacet
  facet normal 0.000000E+00 9.999999E-01 -1.624185E-05
    outer loop
      vertex -3.439371E-02 2.074657E-01 3.880265E-01
      vertex -1.005660E-03 2.074658E-01 3.962836E-01
      vertex 1.285079E-02 2.074658E-01 3.962836E-01
    endloop
  endfacet
  facet normal 0.000000E+00 9.999999E-01 0.000000E+00
    outer loop
      vertex 1.285079E-02 2.074658E-01 3.962836E-01
      vertex 5.717849E-02 2.074658E-01 3.555934E-01
      vertex 7.683875E-02 2.074658E-01 1.775154E-01
    endloop
  endfacet
  facet normal 4.634022E-06 1.000000E+00 -1.967947E-06
    outer loop
      vertex 2.386444E-02 2.074657E-01 -2.294516E-02
      vertex -1.285079E-02 2.074658E-01 -4.125292E-02
      vertex 7.683875E-02 2.074658E-01 1.775154E-01
    endloop
  endfacet
  facet normal 7.945822E-07 9.999999E-01 3.175715E-07
    outer loop
      vertex -1.285079E-02 2.074658E-01 -4.125292E-02
      vertex -7.683875E-02 2.074658E-01 1.188487E-01
      vertex -3.439371E-02 2.074657E-01 3.880265E-01
    endloop
  endfacet
  facet normal -2.700593E-06 1.000000E+00 -7.899018E-07
    outer loop
      vertex -3.439371E-02 2.074657E-01 3.880265E-01
      vertex 1.285079E-02 2.074658E-01 3.962836E-01
      vertex 7.683875E-02 2.074658E-01 1.775154E-01
    endloop
  endfacet
  facet normal -7.515014E-07 1.000000E+00 2.399829E-07
    outer loop
      vertex -1.285079E-02 2.074658E-01 -4.125292E-02
      vertex -3.439371E-02 2.074657E-01 3.880265E-01
      vertex 7.683875E-02 2.074658E-01 1.775154E-01
    endloop
  endfacet
endsolid 
